<svg width="41" height="41" viewBox="0 0 41 41" fill="none" xmlns="http://www.w3.org/2000/svg">
<path d="M4.21191 4.99287V35.8322C4.21212 35.8991 4.23208 35.9644 4.26928 36.02C4.30648 36.0757 4.35927 36.119 4.42104 36.1448C4.4828 36.1705 4.55079 36.1774 4.61647 36.1647C4.68215 36.1519 4.7426 36.12 4.79025 36.0731L20.8479 20.4133L4.79025 4.75196C4.7426 4.70498 4.68215 4.67312 4.61647 4.66036C4.55079 4.64761 4.4828 4.65453 4.42104 4.68026C4.35927 4.70598 4.30648 4.74938 4.26928 4.80499C4.23208 4.8606 4.21212 4.92596 4.21191 4.99287ZM27.5807 13.9786L7.44651 2.8859L7.43395 2.87884C7.08711 2.69051 6.75753 3.15977 7.0416 3.43285L22.8246 18.5245L27.5807 13.9786ZM7.04317 37.3937C6.75753 37.6668 7.08711 38.1361 7.43552 37.9478L7.44808 37.9407L27.5807 26.848L22.8246 22.3005L7.04317 37.3937ZM35.7088 18.4515L30.0863 15.355L24.7997 20.4133L30.0863 25.4692L35.7088 22.3751C37.2382 21.5299 37.2382 19.2966 35.7088 18.4515Z" fill="white"/>
</svg>
