<svg width="42" height="41" viewBox="0 0 42 41" fill="none" xmlns="http://www.w3.org/2000/svg">
<path d="M28.2724 11.0645C25.1085 11.0645 23.7713 12.5742 21.5678 12.5742C19.3086 12.5742 17.5854 11.0754 14.8436 11.0754C12.1599 11.0754 9.29802 12.7139 7.48062 15.5052C4.92872 19.4413 5.36189 26.8545 9.49498 33.1699C10.9734 35.4306 12.9477 37.9661 15.5373 37.9935H15.5844C17.8349 37.9935 18.5035 36.5198 21.6008 36.5026H21.6479C24.6988 36.5026 25.3109 37.9849 27.5521 37.9849H27.5991C30.1887 37.9574 32.269 35.1481 33.7474 32.896C34.8115 31.2764 35.207 30.4634 36.0231 28.6311C30.0443 26.3617 29.0838 17.886 34.9967 14.6365C33.1918 12.3765 30.6556 11.0676 28.2646 11.0676L28.2724 11.0645Z" fill="white"/>
<path d="M27.5756 2.83594C25.6923 2.96385 23.4951 4.16289 22.2082 5.7284C21.0405 7.14716 20.08 9.25177 20.4567 11.2928H20.6074C22.6131 11.2928 24.6659 10.0851 25.865 8.53768C27.0201 7.06477 27.8958 4.97743 27.5756 2.83594Z" fill="white"/>
</svg>
